<svg xmlns="http://www.w3.org/2000/svg" viewBox="0 0 48 48" width="48px" height="48px">
  <path d="M 13 10 C 6.9365932 10 2 14.936593 2 21 L 2 38 C 2 39.64497 3.3550302 41 5 41 L 43 41 C 44.64497 41 46 39.64497 46 38 L 46 31 A 1.0001 1.0001 0 1 0 44 31 L 44 38 C 44 38.56503 43.56503 39 43 39 L 5 39 C 4.4349698 39 4 38.56503 4 38 L 4 21 C 4 16.017407 8.0174068 12 13 12 C 17.982593 12 22 16.017407 22 21 L 22 36 A 1.0001 1.0001 0 1 0 24 36 L 24 21 C 24 14.936593 19.063407 10 13 10 z M 23 10 A 1.0001 1.0001 0 1 0 23 12 L 35 12 C 38.907113 12 42.108228 14.534823 43.357422 18 L 32 18 A 1.0001 1.0001 0 1 0 32 20 L 46 20 L 46 26 L 43 26 L 43 23 A 1.0001 1.0001 0 1 0 41 23 L 41 26 C 41 27.093063 41.906937 28 43 28 L 46 28 C 47.093063 28 48 27.093063 48 26 L 48 20 C 48 18.906937 47.093063 18 46 18 L 45.484375 18 C 44.162626 13.403046 40.009085 10 35 10 L 23 10 z M 8 21 A 1.0001 1.0001 0 1 0 8 23 L 18 23 A 1.0001 1.0001 0 1 0 18 21 L 8 21 z" fill="#FFFFFF" />
</svg>